<mxfile host="65bd71144e">
    <diagram id="6IbAzHZTuBwBoGnhfW5m" name="Page-1">
        <mxGraphModel dx="222" dy="614" grid="1" gridSize="10" guides="1" tooltips="1" connect="1" arrows="1" fold="1" page="1" pageScale="1" pageWidth="827" pageHeight="1169" math="0" shadow="0">
            <root>
                <mxCell id="0"/>
                <mxCell id="1" parent="0"/>
                <mxCell id="2" value="User's Profile:&lt;br&gt;Nick (unique)&lt;br&gt;Password&lt;br&gt;Real Name&lt;br&gt;E-mail" style="ellipse;shape=cloud;whiteSpace=wrap;html=1;" parent="1" vertex="1">
                    <mxGeometry x="280" y="80" width="230" height="150" as="geometry"/>
                </mxCell>
                <mxCell id="3" value="Comment:&lt;br&gt;Text&lt;br&gt;Publication Date" style="ellipse;shape=cloud;whiteSpace=wrap;html=1;" parent="1" vertex="1">
                    <mxGeometry x="100" y="380" width="180" height="130" as="geometry"/>
                </mxCell>
                <mxCell id="4" value="Photo:&lt;br&gt;Filename&lt;br&gt;Description (optional)&lt;br&gt;&lt;br&gt;Tagging users by Frame:&lt;br&gt;coordinates" style="ellipse;shape=cloud;whiteSpace=wrap;html=1;" parent="1" vertex="1">
                    <mxGeometry x="510" y="320" width="250" height="200" as="geometry"/>
                </mxCell>
                <mxCell id="mvNkoSaQTtyqf2YyQ3a3-4" value="DB design adheres &lt;br&gt;strictly to requirements &lt;br&gt;limiting nice-to-have-s &lt;br&gt;to a minimum&lt;br&gt;in order to &lt;br&gt;practice abstraction" style="ellipse;whiteSpace=wrap;html=1;aspect=fixed;" parent="1" vertex="1">
                    <mxGeometry x="280" y="240" width="240" height="240" as="geometry"/>
                </mxCell>
            </root>
        </mxGraphModel>
    </diagram>
    <diagram id="3VuMSHAZYGPktU_dCQZz" name="Page-2">
        <mxGraphModel dx="1238" dy="766" grid="1" gridSize="10" guides="1" tooltips="1" connect="1" arrows="1" fold="1" page="1" pageScale="1" pageWidth="827" pageHeight="1169" math="0" shadow="0">
            <root>
                <mxCell id="4VrYrnmUSF9G2GRnttEU-0"/>
                <mxCell id="4VrYrnmUSF9G2GRnttEU-1" parent="4VrYrnmUSF9G2GRnttEU-0"/>
                <mxCell id="rmwluv7UCdGQV8acDv7V-2" style="edgeStyle=none;html=1;entryX=1;entryY=0.5;entryDx=0;entryDy=0;endArrow=none;endFill=0;" edge="1" parent="4VrYrnmUSF9G2GRnttEU-1" source="4VrYrnmUSF9G2GRnttEU-2" target="rmwluv7UCdGQV8acDv7V-1">
                    <mxGeometry relative="1" as="geometry"/>
                </mxCell>
                <mxCell id="rmwluv7UCdGQV8acDv7V-3" style="edgeStyle=none;html=1;entryX=1;entryY=1;entryDx=0;entryDy=0;endArrow=none;endFill=0;exitX=0;exitY=0;exitDx=0;exitDy=0;" edge="1" parent="4VrYrnmUSF9G2GRnttEU-1" source="4VrYrnmUSF9G2GRnttEU-2" target="4VrYrnmUSF9G2GRnttEU-3">
                    <mxGeometry relative="1" as="geometry"/>
                </mxCell>
                <mxCell id="rmwluv7UCdGQV8acDv7V-4" style="edgeStyle=none;html=1;exitX=0.5;exitY=0;exitDx=0;exitDy=0;entryX=0.5;entryY=1;entryDx=0;entryDy=0;endArrow=none;endFill=0;" edge="1" parent="4VrYrnmUSF9G2GRnttEU-1" source="4VrYrnmUSF9G2GRnttEU-2" target="4VrYrnmUSF9G2GRnttEU-4">
                    <mxGeometry relative="1" as="geometry"/>
                </mxCell>
                <mxCell id="rmwluv7UCdGQV8acDv7V-5" style="edgeStyle=none;html=1;exitX=1;exitY=0;exitDx=0;exitDy=0;entryX=0;entryY=1;entryDx=0;entryDy=0;endArrow=none;endFill=0;" edge="1" parent="4VrYrnmUSF9G2GRnttEU-1" source="4VrYrnmUSF9G2GRnttEU-2" target="rmwluv7UCdGQV8acDv7V-0">
                    <mxGeometry relative="1" as="geometry"/>
                </mxCell>
                <mxCell id="D6YsK2pA35mjCqRcn5N1-8" style="edgeStyle=none;html=1;entryX=0.5;entryY=0;entryDx=0;entryDy=0;endArrow=none;endFill=0;startArrow=ERone;startFill=0;" edge="1" parent="4VrYrnmUSF9G2GRnttEU-1" source="4VrYrnmUSF9G2GRnttEU-2" target="cpUhNPlc0yKIAzupFsu--0">
                    <mxGeometry relative="1" as="geometry"/>
                </mxCell>
                <mxCell id="wO4-YbdHl3tRg8HqyijN-3" style="edgeStyle=none;html=1;exitX=1;exitY=0.5;exitDx=0;exitDy=0;entryX=0;entryY=0.5;entryDx=0;entryDy=0;startArrow=ERzeroToMany;startFill=0;endArrow=none;endFill=0;" edge="1" parent="4VrYrnmUSF9G2GRnttEU-1" source="4VrYrnmUSF9G2GRnttEU-2" target="wO4-YbdHl3tRg8HqyijN-2">
                    <mxGeometry relative="1" as="geometry"/>
                </mxCell>
                <mxCell id="4VrYrnmUSF9G2GRnttEU-2" value="user" style="rounded=1;whiteSpace=wrap;html=1;" vertex="1" parent="4VrYrnmUSF9G2GRnttEU-1">
                    <mxGeometry x="340" y="290" width="120" height="60" as="geometry"/>
                </mxCell>
                <mxCell id="4VrYrnmUSF9G2GRnttEU-3" value="nick" style="ellipse;whiteSpace=wrap;html=1;" vertex="1" parent="4VrYrnmUSF9G2GRnttEU-1">
                    <mxGeometry x="160" y="160" width="120" height="80" as="geometry"/>
                </mxCell>
                <mxCell id="4VrYrnmUSF9G2GRnttEU-4" value="password" style="ellipse;whiteSpace=wrap;html=1;" vertex="1" parent="4VrYrnmUSF9G2GRnttEU-1">
                    <mxGeometry x="340" y="160" width="120" height="80" as="geometry"/>
                </mxCell>
                <mxCell id="rmwluv7UCdGQV8acDv7V-0" value="Real Name&lt;br&gt;(first_name,&lt;br&gt;second_name)" style="ellipse;whiteSpace=wrap;html=1;" vertex="1" parent="4VrYrnmUSF9G2GRnttEU-1">
                    <mxGeometry x="520" y="160" width="120" height="80" as="geometry"/>
                </mxCell>
                <mxCell id="rmwluv7UCdGQV8acDv7V-1" value="email&lt;br&gt;(verified)" style="ellipse;whiteSpace=wrap;html=1;" vertex="1" parent="4VrYrnmUSF9G2GRnttEU-1">
                    <mxGeometry x="160" y="280" width="120" height="80" as="geometry"/>
                </mxCell>
                <mxCell id="D6YsK2pA35mjCqRcn5N1-9" style="edgeStyle=none;html=1;exitX=0.5;exitY=1;exitDx=0;exitDy=0;entryX=0.5;entryY=0;entryDx=0;entryDy=0;startArrow=none;startFill=0;endArrow=ERzeroToMany;endFill=0;" edge="1" parent="4VrYrnmUSF9G2GRnttEU-1" source="cpUhNPlc0yKIAzupFsu--0" target="cpUhNPlc0yKIAzupFsu--1">
                    <mxGeometry relative="1" as="geometry"/>
                </mxCell>
                <mxCell id="cpUhNPlc0yKIAzupFsu--0" value="creates" style="rhombus;whiteSpace=wrap;html=1;" vertex="1" parent="4VrYrnmUSF9G2GRnttEU-1">
                    <mxGeometry x="340" y="400" width="120" height="80" as="geometry"/>
                </mxCell>
                <mxCell id="D6YsK2pA35mjCqRcn5N1-4" style="edgeStyle=none;html=1;exitX=0;exitY=0.5;exitDx=0;exitDy=0;entryX=1;entryY=0.5;entryDx=0;entryDy=0;endArrow=none;endFill=0;" edge="1" parent="4VrYrnmUSF9G2GRnttEU-1" source="cpUhNPlc0yKIAzupFsu--1" target="D6YsK2pA35mjCqRcn5N1-0">
                    <mxGeometry relative="1" as="geometry"/>
                </mxCell>
                <mxCell id="D6YsK2pA35mjCqRcn5N1-5" style="edgeStyle=none;html=1;exitX=0;exitY=1;exitDx=0;exitDy=0;entryX=1;entryY=0;entryDx=0;entryDy=0;endArrow=none;endFill=0;" edge="1" parent="4VrYrnmUSF9G2GRnttEU-1" source="cpUhNPlc0yKIAzupFsu--1" target="D6YsK2pA35mjCqRcn5N1-1">
                    <mxGeometry relative="1" as="geometry"/>
                </mxCell>
                <mxCell id="D6YsK2pA35mjCqRcn5N1-6" style="edgeStyle=none;html=1;exitX=1;exitY=1;exitDx=0;exitDy=0;entryX=0;entryY=0;entryDx=0;entryDy=0;endArrow=none;endFill=0;" edge="1" parent="4VrYrnmUSF9G2GRnttEU-1" source="cpUhNPlc0yKIAzupFsu--1" target="D6YsK2pA35mjCqRcn5N1-2">
                    <mxGeometry relative="1" as="geometry"/>
                </mxCell>
                <mxCell id="D6YsK2pA35mjCqRcn5N1-7" style="edgeStyle=none;html=1;exitX=0.5;exitY=1;exitDx=0;exitDy=0;entryX=0.5;entryY=0;entryDx=0;entryDy=0;endArrow=none;endFill=0;" edge="1" parent="4VrYrnmUSF9G2GRnttEU-1" source="cpUhNPlc0yKIAzupFsu--1" target="D6YsK2pA35mjCqRcn5N1-3">
                    <mxGeometry relative="1" as="geometry"/>
                </mxCell>
                <mxCell id="cpUhNPlc0yKIAzupFsu--1" value="comment" style="rounded=1;whiteSpace=wrap;html=1;" vertex="1" parent="4VrYrnmUSF9G2GRnttEU-1">
                    <mxGeometry x="340" y="530" width="120" height="60" as="geometry"/>
                </mxCell>
                <mxCell id="D6YsK2pA35mjCqRcn5N1-0" value="text" style="ellipse;whiteSpace=wrap;html=1;" vertex="1" parent="4VrYrnmUSF9G2GRnttEU-1">
                    <mxGeometry x="160" y="520" width="120" height="80" as="geometry"/>
                </mxCell>
                <mxCell id="D6YsK2pA35mjCqRcn5N1-1" value="publication_date" style="ellipse;whiteSpace=wrap;html=1;" vertex="1" parent="4VrYrnmUSF9G2GRnttEU-1">
                    <mxGeometry x="160" y="640" width="120" height="80" as="geometry"/>
                </mxCell>
                <mxCell id="D6YsK2pA35mjCqRcn5N1-2" value="hirarchy" style="ellipse;whiteSpace=wrap;html=1;" vertex="1" parent="4VrYrnmUSF9G2GRnttEU-1">
                    <mxGeometry x="520" y="640" width="120" height="80" as="geometry"/>
                </mxCell>
                <mxCell id="D6YsK2pA35mjCqRcn5N1-3" value="reference" style="ellipse;whiteSpace=wrap;html=1;" vertex="1" parent="4VrYrnmUSF9G2GRnttEU-1">
                    <mxGeometry x="340" y="640" width="120" height="80" as="geometry"/>
                </mxCell>
                <mxCell id="2GuSuTmnc29YoE3JE5uO-4" style="edgeStyle=none;html=1;entryX=0;entryY=0.5;entryDx=0;entryDy=0;startArrow=none;startFill=0;endArrow=none;endFill=0;" edge="1" parent="4VrYrnmUSF9G2GRnttEU-1" source="wO4-YbdHl3tRg8HqyijN-1" target="2GuSuTmnc29YoE3JE5uO-3">
                    <mxGeometry relative="1" as="geometry"/>
                </mxCell>
                <mxCell id="wO4-YbdHl3tRg8HqyijN-1" value="picture" style="rounded=1;whiteSpace=wrap;html=1;" vertex="1" parent="4VrYrnmUSF9G2GRnttEU-1">
                    <mxGeometry x="1020" y="290" width="120" height="60" as="geometry"/>
                </mxCell>
                <mxCell id="wO4-YbdHl3tRg8HqyijN-4" style="edgeStyle=none;html=1;entryX=0;entryY=0.5;entryDx=0;entryDy=0;startArrow=none;startFill=0;endArrow=ERzeroToMany;endFill=0;" edge="1" parent="4VrYrnmUSF9G2GRnttEU-1" source="wO4-YbdHl3tRg8HqyijN-2" target="wO4-YbdHl3tRg8HqyijN-1">
                    <mxGeometry relative="1" as="geometry"/>
                </mxCell>
                <mxCell id="wO4-YbdHl3tRg8HqyijN-2" value="tagged in" style="rhombus;whiteSpace=wrap;html=1;" vertex="1" parent="4VrYrnmUSF9G2GRnttEU-1">
                    <mxGeometry x="680" y="280" width="120" height="80" as="geometry"/>
                </mxCell>
                <mxCell id="2GuSuTmnc29YoE3JE5uO-2" style="edgeStyle=none;html=1;exitX=0.5;exitY=1;exitDx=0;exitDy=0;entryX=0.5;entryY=0;entryDx=0;entryDy=0;startArrow=none;startFill=0;endArrow=none;endFill=0;" edge="1" parent="4VrYrnmUSF9G2GRnttEU-1" source="2GuSuTmnc29YoE3JE5uO-1" target="wO4-YbdHl3tRg8HqyijN-1">
                    <mxGeometry relative="1" as="geometry"/>
                </mxCell>
                <mxCell id="2GuSuTmnc29YoE3JE5uO-1" value="file_name" style="ellipse;whiteSpace=wrap;html=1;" vertex="1" parent="4VrYrnmUSF9G2GRnttEU-1">
                    <mxGeometry x="1020" y="160" width="120" height="80" as="geometry"/>
                </mxCell>
                <mxCell id="2GuSuTmnc29YoE3JE5uO-3" value="description" style="ellipse;whiteSpace=wrap;html=1;" vertex="1" parent="4VrYrnmUSF9G2GRnttEU-1">
                    <mxGeometry x="1200" y="280" width="120" height="80" as="geometry"/>
                </mxCell>
                <mxCell id="FO-jimX-k3f7aF9V88Cg-1" style="edgeStyle=none;html=1;startArrow=none;startFill=0;endArrow=none;endFill=0;" edge="1" parent="4VrYrnmUSF9G2GRnttEU-1" source="FO-jimX-k3f7aF9V88Cg-0" target="wO4-YbdHl3tRg8HqyijN-2">
                    <mxGeometry relative="1" as="geometry"/>
                </mxCell>
                <mxCell id="FO-jimX-k3f7aF9V88Cg-0" value="coordinates (x, y)" style="ellipse;whiteSpace=wrap;html=1;" vertex="1" parent="4VrYrnmUSF9G2GRnttEU-1">
                    <mxGeometry x="680" y="400" width="120" height="80" as="geometry"/>
                </mxCell>
                <mxCell id="2wE9AkDWm5wUDJ6xMxKb-0" value="" style="shape=umlDestroy;whiteSpace=wrap;html=1;strokeWidth=3;fillColor=#e51400;fontColor=#ffffff;strokeColor=#B20000;" vertex="1" parent="4VrYrnmUSF9G2GRnttEU-1">
                    <mxGeometry x="340" y="640" width="120" height="80" as="geometry"/>
                </mxCell>
                <mxCell id="2wE9AkDWm5wUDJ6xMxKb-1" value="" style="shape=umlDestroy;whiteSpace=wrap;html=1;strokeWidth=3;fillColor=#e51400;fontColor=#ffffff;strokeColor=#B20000;" vertex="1" parent="4VrYrnmUSF9G2GRnttEU-1">
                    <mxGeometry x="520" y="640" width="120" height="80" as="geometry"/>
                </mxCell>
            </root>
        </mxGraphModel>
    </diagram>
    <diagram id="osiManT-_G5pfziwYEN1" name="Page-3">
        <mxGraphModel dx="222" dy="614" grid="1" gridSize="10" guides="1" tooltips="1" connect="1" arrows="1" fold="1" page="1" pageScale="1" pageWidth="827" pageHeight="1169" math="0" shadow="0">
            <root>
                <mxCell id="dFW7puya6tjT1yHBhRZ5-0"/>
                <mxCell id="dFW7puya6tjT1yHBhRZ5-1" parent="dFW7puya6tjT1yHBhRZ5-0"/>
                <mxCell id="dFW7puya6tjT1yHBhRZ5-2" value="user" style="swimlane;fontStyle=0;childLayout=stackLayout;horizontal=1;startSize=26;fillColor=none;horizontalStack=0;resizeParent=1;resizeParentMax=0;resizeLast=0;collapsible=1;marginBottom=0;" parent="dFW7puya6tjT1yHBhRZ5-1" vertex="1">
                    <mxGeometry x="80" y="120" width="180" height="208" as="geometry"/>
                </mxCell>
                <mxCell id="dFW7puya6tjT1yHBhRZ5-3" value="user_id   INT" style="text;strokeColor=none;fillColor=none;align=left;verticalAlign=top;spacingLeft=4;spacingRight=4;overflow=hidden;rotatable=0;points=[[0,0.5],[1,0.5]];portConstraint=eastwest;fontStyle=1;fontColor=#FF9933;" parent="dFW7puya6tjT1yHBhRZ5-2" vertex="1">
                    <mxGeometry y="26" width="180" height="26" as="geometry"/>
                </mxCell>
                <mxCell id="dFW7puya6tjT1yHBhRZ5-4" value="nick   VARCHAR(32)" style="text;strokeColor=none;fillColor=none;align=left;verticalAlign=top;spacingLeft=4;spacingRight=4;overflow=hidden;rotatable=0;points=[[0,0.5],[1,0.5]];portConstraint=eastwest;" parent="dFW7puya6tjT1yHBhRZ5-2" vertex="1">
                    <mxGeometry y="52" width="180" height="26" as="geometry"/>
                </mxCell>
                <mxCell id="dFW7puya6tjT1yHBhRZ5-5" value="first_name   VARCHAR(32)" style="text;strokeColor=none;fillColor=none;align=left;verticalAlign=top;spacingLeft=4;spacingRight=4;overflow=hidden;rotatable=0;points=[[0,0.5],[1,0.5]];portConstraint=eastwest;" parent="dFW7puya6tjT1yHBhRZ5-2" vertex="1">
                    <mxGeometry y="78" width="180" height="26" as="geometry"/>
                </mxCell>
                <mxCell id="UGNBzNAVb0DQPfp7Jc0x-0" value="second_name   VARCHAR(32)" style="text;strokeColor=none;fillColor=none;align=left;verticalAlign=top;spacingLeft=4;spacingRight=4;overflow=hidden;rotatable=0;points=[[0,0.5],[1,0.5]];portConstraint=eastwest;" parent="dFW7puya6tjT1yHBhRZ5-2" vertex="1">
                    <mxGeometry y="104" width="180" height="26" as="geometry"/>
                </mxCell>
                <mxCell id="UGNBzNAVb0DQPfp7Jc0x-2" value="password   VARCHAR(32)" style="text;strokeColor=none;fillColor=none;align=left;verticalAlign=top;spacingLeft=4;spacingRight=4;overflow=hidden;rotatable=0;points=[[0,0.5],[1,0.5]];portConstraint=eastwest;" parent="dFW7puya6tjT1yHBhRZ5-2" vertex="1">
                    <mxGeometry y="130" width="180" height="26" as="geometry"/>
                </mxCell>
                <mxCell id="UGNBzNAVb0DQPfp7Jc0x-3" value="email   VARCHAR(128)" style="text;strokeColor=none;fillColor=none;align=left;verticalAlign=top;spacingLeft=4;spacingRight=4;overflow=hidden;rotatable=0;points=[[0,0.5],[1,0.5]];portConstraint=eastwest;" parent="dFW7puya6tjT1yHBhRZ5-2" vertex="1">
                    <mxGeometry y="156" width="180" height="26" as="geometry"/>
                </mxCell>
                <mxCell id="UGNBzNAVb0DQPfp7Jc0x-4" value="email_verified   ENUM(0, 1)" style="text;strokeColor=none;fillColor=none;align=left;verticalAlign=top;spacingLeft=4;spacingRight=4;overflow=hidden;rotatable=0;points=[[0,0.5],[1,0.5]];portConstraint=eastwest;" parent="dFW7puya6tjT1yHBhRZ5-2" vertex="1">
                    <mxGeometry y="182" width="180" height="26" as="geometry"/>
                </mxCell>
                <mxCell id="KW_1ObjnBBAuDhf3MpFI-0" value="comment" style="swimlane;fontStyle=0;childLayout=stackLayout;horizontal=1;startSize=26;fillColor=none;horizontalStack=0;resizeParent=1;resizeParentMax=0;resizeLast=0;collapsible=1;marginBottom=0;" parent="dFW7puya6tjT1yHBhRZ5-1" vertex="1">
                    <mxGeometry x="80" y="400" width="180" height="130" as="geometry"/>
                </mxCell>
                <mxCell id="zS_31hyMKTdG4_KaNgTx-8" value="comment_id   INT" style="text;strokeColor=none;fillColor=none;align=left;verticalAlign=top;spacingLeft=4;spacingRight=4;overflow=hidden;rotatable=0;points=[[0,0.5],[1,0.5]];portConstraint=eastwest;fontStyle=1;fontColor=#FF9933;" parent="KW_1ObjnBBAuDhf3MpFI-0" vertex="1">
                    <mxGeometry y="26" width="180" height="26" as="geometry"/>
                </mxCell>
                <mxCell id="KW_1ObjnBBAuDhf3MpFI-1" value="text   TEXT" style="text;strokeColor=none;fillColor=none;align=left;verticalAlign=top;spacingLeft=4;spacingRight=4;overflow=hidden;rotatable=0;points=[[0,0.5],[1,0.5]];portConstraint=eastwest;" parent="KW_1ObjnBBAuDhf3MpFI-0" vertex="1">
                    <mxGeometry y="52" width="180" height="26" as="geometry"/>
                </mxCell>
                <mxCell id="KW_1ObjnBBAuDhf3MpFI-2" value="publication_date   TIMESTAMP" style="text;strokeColor=none;fillColor=none;align=left;verticalAlign=top;spacingLeft=4;spacingRight=4;overflow=hidden;rotatable=0;points=[[0,0.5],[1,0.5]];portConstraint=eastwest;" parent="KW_1ObjnBBAuDhf3MpFI-0" vertex="1">
                    <mxGeometry y="78" width="180" height="26" as="geometry"/>
                </mxCell>
                <mxCell id="KW_1ObjnBBAuDhf3MpFI-3" value="fk_user_id   INT" style="text;strokeColor=none;fillColor=none;align=left;verticalAlign=top;spacingLeft=4;spacingRight=4;overflow=hidden;rotatable=0;points=[[0,0.5],[1,0.5]];portConstraint=eastwest;fontStyle=2;fontColor=#3399FF;" parent="KW_1ObjnBBAuDhf3MpFI-0" vertex="1">
                    <mxGeometry y="104" width="180" height="26" as="geometry"/>
                </mxCell>
                <mxCell id="zS_31hyMKTdG4_KaNgTx-0" value="picture" style="swimlane;fontStyle=0;childLayout=stackLayout;horizontal=1;startSize=26;fillColor=none;horizontalStack=0;resizeParent=1;resizeParentMax=0;resizeLast=0;collapsible=1;marginBottom=0;" parent="dFW7puya6tjT1yHBhRZ5-1" vertex="1">
                    <mxGeometry x="600" y="120" width="180" height="104" as="geometry"/>
                </mxCell>
                <mxCell id="zS_31hyMKTdG4_KaNgTx-9" value="picture_id   INT" style="text;strokeColor=none;fillColor=none;align=left;verticalAlign=top;spacingLeft=4;spacingRight=4;overflow=hidden;rotatable=0;points=[[0,0.5],[1,0.5]];portConstraint=eastwest;fontStyle=1;fontColor=#FF9933;" parent="zS_31hyMKTdG4_KaNgTx-0" vertex="1">
                    <mxGeometry y="26" width="180" height="26" as="geometry"/>
                </mxCell>
                <mxCell id="zS_31hyMKTdG4_KaNgTx-1" value="file_name   VARCHAR(255)" style="text;strokeColor=none;fillColor=none;align=left;verticalAlign=top;spacingLeft=4;spacingRight=4;overflow=hidden;rotatable=0;points=[[0,0.5],[1,0.5]];portConstraint=eastwest;" parent="zS_31hyMKTdG4_KaNgTx-0" vertex="1">
                    <mxGeometry y="52" width="180" height="26" as="geometry"/>
                </mxCell>
                <mxCell id="zS_31hyMKTdG4_KaNgTx-2" value="description   VARCHAR(255)" style="text;strokeColor=none;fillColor=none;align=left;verticalAlign=top;spacingLeft=4;spacingRight=4;overflow=hidden;rotatable=0;points=[[0,0.5],[1,0.5]];portConstraint=eastwest;" parent="zS_31hyMKTdG4_KaNgTx-0" vertex="1">
                    <mxGeometry y="78" width="180" height="26" as="geometry"/>
                </mxCell>
                <mxCell id="zS_31hyMKTdG4_KaNgTx-4" value="tag" style="swimlane;fontStyle=0;childLayout=stackLayout;horizontal=1;startSize=26;fillColor=none;horizontalStack=0;resizeParent=1;resizeParentMax=0;resizeLast=0;collapsible=1;marginBottom=0;" parent="dFW7puya6tjT1yHBhRZ5-1" vertex="1">
                    <mxGeometry x="340" y="120" width="180" height="156" as="geometry"/>
                </mxCell>
                <mxCell id="zS_31hyMKTdG4_KaNgTx-5" value="tag_id   INT" style="text;strokeColor=none;fillColor=none;align=left;verticalAlign=top;spacingLeft=4;spacingRight=4;overflow=hidden;rotatable=0;points=[[0,0.5],[1,0.5]];portConstraint=eastwest;fontStyle=1;fontColor=#FF9933;" parent="zS_31hyMKTdG4_KaNgTx-4" vertex="1">
                    <mxGeometry y="26" width="180" height="26" as="geometry"/>
                </mxCell>
                <mxCell id="zS_31hyMKTdG4_KaNgTx-7" value="x_coordinate   INT" style="text;strokeColor=none;fillColor=none;align=left;verticalAlign=top;spacingLeft=4;spacingRight=4;overflow=hidden;rotatable=0;points=[[0,0.5],[1,0.5]];portConstraint=eastwest;" parent="zS_31hyMKTdG4_KaNgTx-4" vertex="1">
                    <mxGeometry y="52" width="180" height="26" as="geometry"/>
                </mxCell>
                <mxCell id="zS_31hyMKTdG4_KaNgTx-10" value="y-coordinate   INT" style="text;strokeColor=none;fillColor=none;align=left;verticalAlign=top;spacingLeft=4;spacingRight=4;overflow=hidden;rotatable=0;points=[[0,0.5],[1,0.5]];portConstraint=eastwest;" parent="zS_31hyMKTdG4_KaNgTx-4" vertex="1">
                    <mxGeometry y="78" width="180" height="26" as="geometry"/>
                </mxCell>
                <mxCell id="zS_31hyMKTdG4_KaNgTx-6" value="fk_user_id   INT" style="text;strokeColor=none;fillColor=none;align=left;verticalAlign=top;spacingLeft=4;spacingRight=4;overflow=hidden;rotatable=0;points=[[0,0.5],[1,0.5]];portConstraint=eastwest;fontStyle=2;fontColor=#3399FF;" parent="zS_31hyMKTdG4_KaNgTx-4" vertex="1">
                    <mxGeometry y="104" width="180" height="26" as="geometry"/>
                </mxCell>
                <mxCell id="8l2gPRMNkP3sKpIwlBsX-4" value="fk_picture_id   INT" style="text;strokeColor=none;fillColor=none;align=left;verticalAlign=top;spacingLeft=4;spacingRight=4;overflow=hidden;rotatable=0;points=[[0,0.5],[1,0.5]];portConstraint=eastwest;fontColor=#3399FF;fontStyle=2" parent="zS_31hyMKTdG4_KaNgTx-4" vertex="1">
                    <mxGeometry y="130" width="180" height="26" as="geometry"/>
                </mxCell>
                <mxCell id="8l2gPRMNkP3sKpIwlBsX-1" style="edgeStyle=none;html=1;exitX=0;exitY=0.5;exitDx=0;exitDy=0;entryX=0;entryY=0.5;entryDx=0;entryDy=0;fontColor=#3399FF;startArrow=ERzeroToMany;startFill=0;endArrow=ERmandOne;endFill=0;" parent="dFW7puya6tjT1yHBhRZ5-1" source="KW_1ObjnBBAuDhf3MpFI-3" target="dFW7puya6tjT1yHBhRZ5-3" edge="1">
                    <mxGeometry relative="1" as="geometry">
                        <Array as="points">
                            <mxPoint x="40" y="517"/>
                            <mxPoint x="40" y="340"/>
                            <mxPoint x="40" y="159"/>
                        </Array>
                    </mxGeometry>
                </mxCell>
                <mxCell id="8l2gPRMNkP3sKpIwlBsX-3" style="edgeStyle=none;html=1;exitX=1;exitY=0.5;exitDx=0;exitDy=0;entryX=0;entryY=0.5;entryDx=0;entryDy=0;fontColor=#3399FF;startArrow=ERmandOne;startFill=0;endArrow=ERzeroToMany;endFill=0;" parent="dFW7puya6tjT1yHBhRZ5-1" source="dFW7puya6tjT1yHBhRZ5-3" target="zS_31hyMKTdG4_KaNgTx-6" edge="1">
                    <mxGeometry relative="1" as="geometry">
                        <Array as="points">
                            <mxPoint x="300" y="159"/>
                            <mxPoint x="300" y="190"/>
                            <mxPoint x="300" y="237"/>
                        </Array>
                    </mxGeometry>
                </mxCell>
                <mxCell id="8l2gPRMNkP3sKpIwlBsX-5" style="edgeStyle=none;html=1;exitX=1;exitY=0.5;exitDx=0;exitDy=0;entryX=0;entryY=0.5;entryDx=0;entryDy=0;fontColor=#3399FF;startArrow=ERzeroToMany;startFill=0;endArrow=ERmandOne;endFill=0;" parent="dFW7puya6tjT1yHBhRZ5-1" source="8l2gPRMNkP3sKpIwlBsX-4" target="zS_31hyMKTdG4_KaNgTx-9" edge="1">
                    <mxGeometry relative="1" as="geometry">
                        <Array as="points">
                            <mxPoint x="560" y="263"/>
                            <mxPoint x="560" y="210"/>
                            <mxPoint x="560" y="159"/>
                        </Array>
                    </mxGeometry>
                </mxCell>
                <mxCell id="p13-uaxWMizldedGYkuV-0" value="&lt;b&gt;&lt;font style=&quot;font-size: 24px&quot;&gt;1NF&lt;/font&gt;&lt;/b&gt;" style="ellipse;shape=cloud;whiteSpace=wrap;html=1;fillColor=#008a00;strokeColor=#005700;fontColor=#ffffff;" parent="dFW7puya6tjT1yHBhRZ5-1" vertex="1">
                    <mxGeometry x="340" y="450" width="120" height="80" as="geometry"/>
                </mxCell>
                <mxCell id="p13-uaxWMizldedGYkuV-1" value="&lt;b&gt;&lt;font style=&quot;font-size: 24px&quot;&gt;2NF&lt;/font&gt;&lt;/b&gt;" style="ellipse;shape=cloud;whiteSpace=wrap;html=1;fillColor=#008a00;strokeColor=#005700;fontColor=#ffffff;" parent="dFW7puya6tjT1yHBhRZ5-1" vertex="1">
                    <mxGeometry x="390" y="410" width="120" height="80" as="geometry"/>
                </mxCell>
                <mxCell id="p13-uaxWMizldedGYkuV-2" value="&lt;b&gt;&lt;font style=&quot;font-size: 24px&quot;&gt;3NF&lt;/font&gt;&lt;/b&gt;" style="ellipse;shape=cloud;whiteSpace=wrap;html=1;fillColor=#008a00;strokeColor=#005700;fontColor=#ffffff;" parent="dFW7puya6tjT1yHBhRZ5-1" vertex="1">
                    <mxGeometry x="440" y="370" width="120" height="80" as="geometry"/>
                </mxCell>
            </root>
        </mxGraphModel>
    </diagram>
</mxfile>